<svg xmlns="http://www.w3.org/2000/svg" width="360" height="240" viewBox="0 0 360 240" role="img" aria-labelledby="title desc"><title id="title">空席と保留中の席</title><desc id="desc">四席。A席は予約済み、B席とC席のみ選択可能な空席、D席は選択不可の保留中。</desc><style>text{font-family:'Noto Sans CJK JP',sans-serif;fill:#203040}.label{font-weight:600}path{stroke-linecap:round;stroke-linejoin:round}</style><defs><symbol xmlns="http://www.w3.org/2000/svg" id="pencil-crosshatch" viewBox="0 0 100 70"><path d="M4.679 63.919L24.653 5.735" fill="none" data-palette-stroke="deep" stroke="#174C66" stroke-width="1.1" opacity="0.55" />
<path d="M13.875 64.064L34.586 5.745" fill="none" data-palette-stroke="deep" stroke="#174C66" stroke-width="1.1" opacity="0.55" />
<path d="M23.716 63.468L44.885 7.804" fill="none" data-palette-stroke="deep" stroke="#174C66" stroke-width="1.1" opacity="0.55" />
<path d="M33.64 64.15L53.803 7.563" fill="none" data-palette-stroke="deep" stroke="#174C66" stroke-width="1.1" opacity="0.55" />
<path d="M45.065 62.1L64.374 7.468" fill="none" data-palette-stroke="deep" stroke="#174C66" stroke-width="1.1" opacity="0.55" />
<path d="M54.772 62.045L73.704 8.32" fill="none" data-palette-stroke="deep" stroke="#174C66" stroke-width="1.1" opacity="0.55" />
<path d="M63.863 63.595L83.451 6.103" fill="none" data-palette-stroke="deep" stroke="#174C66" stroke-width="1.1" opacity="0.55" />
<path d="M75.207 64.29L93.555 7.748" fill="none" data-palette-stroke="deep" stroke="#174C66" stroke-width="1.1" opacity="0.55" />
<path d="M3.776 8.209L23.605 63.443" fill="none" data-palette-stroke="deep" stroke="#174C66" stroke-width="1.1" opacity="0.55" />
<path d="M13.025 7.079L33.29 61.776" fill="none" data-palette-stroke="deep" stroke="#174C66" stroke-width="1.1" opacity="0.55" />
<path d="M24.293 7.923L45.323 62.303" fill="none" data-palette-stroke="deep" stroke="#174C66" stroke-width="1.1" opacity="0.55" />
<path d="M33.78 8.399L55.289 62.039" fill="none" data-palette-stroke="deep" stroke="#174C66" stroke-width="1.1" opacity="0.55" />
<path d="M44.296 6.468L64.002 64.266" fill="none" data-palette-stroke="deep" stroke="#174C66" stroke-width="1.1" opacity="0.55" />
<path d="M54.91 5.738L73.028 64.349" fill="none" data-palette-stroke="deep" stroke="#174C66" stroke-width="1.1" opacity="0.55" />
<path d="M65.113 6.524L83.545 63.555" fill="none" data-palette-stroke="deep" stroke="#174C66" stroke-width="1.1" opacity="0.55" />
<path d="M74.821 5.774L94.211 62.962" fill="none" data-palette-stroke="deep" stroke="#174C66" stroke-width="1.1" opacity="0.55" /></symbol>
<symbol xmlns="http://www.w3.org/2000/svg" id="empty-seat" viewBox="0 0 100 100">
<path d="M29 49L27 18L70 16L73 48M21 57L78 55L80 69L23 71ZM30 71L29 87M72 70L74 87" fill="none" data-palette-stroke="ink" stroke="#203040" stroke-width="1.7" stroke-linecap="round" stroke-linejoin="round" /><path d="M29 49L27 18L70 16L73 48M21 57L78 55L80 69L23 71ZM30 71L29 87M72 70L74 87" transform="translate(2.4 -1.8)" opacity="0.8" fill="none" data-palette-stroke="deep" stroke="#174C66" stroke-width="1.1" stroke-linecap="round" stroke-linejoin="round" /><use href="#pencil-crosshatch" x="32" y="22" width="32" height="22" />
</symbol>
<symbol xmlns="http://www.w3.org/2000/svg" id="clock" viewBox="0 0 100 100">
<path d="M50 15C94 13 97 82 52 86C7 89 4 18 50 15M51 27L49 51L67 63M49 17L50 23M83 50L77 51M50 84L51 78M17 51L23 50" fill="none" data-palette-stroke="ink" stroke="#203040" stroke-width="1.7" stroke-linecap="round" stroke-linejoin="round" /><path d="M50 15C94 13 97 82 52 86C7 89 4 18 50 15M51 27L49 51L67 63M49 17L50 23M83 50L77 51M50 84L51 78M17 51L23 50" transform="translate(2.4 -1.8)" opacity="0.8" fill="none" data-palette-stroke="deep" stroke="#174C66" stroke-width="1.1" stroke-linecap="round" stroke-linejoin="round" />
</symbol>
<symbol xmlns="http://www.w3.org/2000/svg" id="check" viewBox="0 0 100 100">
<path d="M19 52L40 76L81 25" fill="none" data-palette-stroke="ink" stroke="#203040" stroke-width="1.7" stroke-linecap="round" stroke-linejoin="round" /><path d="M19 52L40 76L81 25" transform="translate(2.4 -1.8)" opacity="0.8" fill="none" data-palette-stroke="deep" stroke="#174C66" stroke-width="1.1" stroke-linecap="round" stroke-linejoin="round" /><path d="M25 83Q53 86 80 79" fill="none" data-palette-stroke="accent" stroke="#267D75" stroke-width="1.1" />
</symbol>
<symbol xmlns="http://www.w3.org/2000/svg" id="slot-card" viewBox="0 0 100 100">
<path d="M12 24L86 20L88 81L10 84ZM13 40L85 39M29 15L28 28M72 14L73 27M27 55L65 53M27 68L52 69" fill="none" data-palette-stroke="ink" stroke="#203040" stroke-width="1.7" stroke-linecap="round" stroke-linejoin="round" /><path d="M12 24L86 20L88 81L10 84ZM13 40L85 39M29 15L28 28M72 14L73 27M27 55L65 53M27 68L52 69" transform="translate(2.4 -1.8)" opacity="0.8" fill="none" data-palette-stroke="deep" stroke="#174C66" stroke-width="1.1" stroke-linecap="round" stroke-linejoin="round" />
</symbol>
</defs><rect width="360" height="240" fill="#FFFFFF"/><path d="M0 24H360M0 48H360M0 72H360M0 96H360M0 120H360M0 144H360M0 168H360M0 192H360M0 216H360" fill="none" stroke="#708090" stroke-width=".7" opacity=".15"/><path d="M12 0L13 240" fill="none" stroke="#267D75" stroke-width=".8" opacity=".3"/><rect x="19" y="6" width="310" height="30" fill="#FFFFFF"/><text x="20" y="28" font-size="18" text-anchor="start" class="label" style="fill:#203040">空席と保留中の席</text><path d="M22 48L169 46L170 127L20 129Z" fill="#FFFFFF" stroke="#203040" stroke-width="1.7"/><path d="M22 48L169 46L170 127L20 129Z" transform="translate(2.4 -1.8)" fill="none" stroke="#708090" stroke-width=".9" opacity=".65"/><use href="#pencil-crosshatch" x="26" y="50" width="138" height="75" preserveAspectRatio="none"/><rect x="25" y="72" width="140" height="51" fill="#FFFFFF"/><use href="#empty-seat" x="27" y="75" width="42" height="42"/><use href="#check" x="70" y="50" width="23" height="23"/><text x="95" y="69" font-size="14" text-anchor="middle" class="label" style="fill:#203040">A席：予約済み</text><text x="116" y="103" font-size="14" text-anchor="middle" class="label" style="fill:#203040">選択不可</text><path d="M190 48L337 46L338 127L188 129Z" fill="#FFFFFF" stroke="#267D75" stroke-width="1.7"/><path d="M190 48L337 46L338 127L188 129Z" transform="translate(2.4 -1.8)" fill="none" stroke="#708090" stroke-width=".9" opacity=".65"/><use href="#pencil-crosshatch" x="194" y="50" width="138" height="75" preserveAspectRatio="none"/><rect x="193" y="72" width="140" height="51" fill="#FFFFFF"/><use href="#empty-seat" x="195" y="75" width="42" height="42"/><text x="263" y="69" font-size="14" text-anchor="middle" class="label" style="fill:#267D75">B席：空席</text><text x="284" y="103" font-size="14" text-anchor="middle" class="label" style="fill:#267D75">選択可</text><path d="M22 146L169 144L170 225L20 227Z" fill="#FFFFFF" stroke="#267D75" stroke-width="1.7"/><path d="M22 146L169 144L170 225L20 227Z" transform="translate(2.4 -1.8)" fill="none" stroke="#708090" stroke-width=".9" opacity=".65"/><use href="#pencil-crosshatch" x="26" y="148" width="138" height="75" preserveAspectRatio="none"/><rect x="25" y="170" width="140" height="51" fill="#FFFFFF"/><use href="#empty-seat" x="27" y="173" width="42" height="42"/><text x="95" y="167" font-size="14" text-anchor="middle" class="label" style="fill:#267D75">C席：空席</text><text x="116" y="201" font-size="14" text-anchor="middle" class="label" style="fill:#267D75">選択可</text><path d="M190 146L337 144L338 225L188 227Z" fill="#FFFFFF" stroke="#203040" stroke-width="1.7"/><path d="M190 146L337 144L338 225L188 227Z" transform="translate(2.4 -1.8)" fill="none" stroke="#708090" stroke-width=".9" opacity=".65"/><use href="#pencil-crosshatch" x="194" y="148" width="138" height="75" preserveAspectRatio="none"/><rect x="193" y="170" width="140" height="51" fill="#FFFFFF"/><use href="#empty-seat" x="195" y="173" width="42" height="42"/><use href="#clock" x="238" y="148" width="23" height="23"/><text x="263" y="167" font-size="14" text-anchor="middle" class="label" style="fill:#203040">D席：保留中</text><text x="284" y="201" font-size="14" text-anchor="middle" class="label" style="fill:#203040">選択不可</text></svg>