<svg xmlns="http://www.w3.org/2000/svg" viewBox="0 0 720 240" role="img" data-palette-ink="#F0F4F8" data-palette-surface="#15212D" data-palette-border="#91A4B5" data-palette-accent="#68C4AF" data-palette-deep="#85B9DF" data-palette-warning="#FFC078" font-family="'Noto Sans CJK JP', sans-serif"><title>結果未到着の並行作業</title><desc>Conceptual UI miniature; original P00 scenario, not a screenshot or interactive control map. - 共通の案内文から「表記確認」と「会場情報確認」に分岐する。
- 表記確認は完了、会場情報確認は結果待ち。
- まとめ役は両方が完了するまで公開しない。
- 現時点で公開済みの案内はゼロ。</desc><rect width="720" height="240" fill="#15212D" data-palette-fill="surface"/><rect x="12" y="12" width="696" height="216" rx="5" fill="#15212D" data-palette-fill="surface" stroke="#91A4B5" data-palette-stroke="border" stroke-width="1.5"/><path d="M12 34H708" fill="none" stroke="#91A4B5" data-palette-stroke="border" stroke-width="1.5" stroke-linecap="round" stroke-linejoin="round"/><circle cx="24" cy="23" r="2" fill="#91A4B5" data-palette-fill="border" stroke="#91A4B5" data-palette-stroke="border" stroke-width="1.5"/><circle cx="34" cy="23" r="2" fill="#91A4B5" data-palette-fill="border" stroke="#91A4B5" data-palette-stroke="border" stroke-width="1.5"/><circle cx="44" cy="23" r="2" fill="#91A4B5" data-palette-fill="border" stroke="#91A4B5" data-palette-stroke="border" stroke-width="1.5"/><rect x="30" y="90" width="124" height="80" rx="5" fill="#15212D" data-palette-fill="surface" stroke="#91A4B5" data-palette-stroke="border" stroke-width="1.5"/><rect x="30" y="90" width="5" height="80" rx="0" fill="#85B9DF" data-palette-fill="deep" stroke="#85B9DF" data-palette-stroke="deep" stroke-width="1.5"/><text x="46" y="119" fill="#F0F4F8" data-palette-fill="ink" font-size="20" font-weight="600" text-anchor="start"><tspan x="46" dy="0">案内文</tspan></text><path d="M46 132H138" fill="none" stroke="#91A4B5" data-palette-stroke="border" stroke-width="1.5" stroke-linecap="round" stroke-linejoin="round"/><rect x="75" y="128" width="32" height="36" rx="3" fill="#15212D" data-palette-fill="surface" stroke="#85B9DF" data-palette-stroke="deep" stroke-width="1.5"/><path d="M82 139H100M82 146H100M82 153H95" fill="none" stroke="#85B9DF" data-palette-stroke="deep" stroke-width="1.5" stroke-linecap="round" stroke-linejoin="round"/><rect x="224" y="50" width="252" height="64" rx="5" fill="#15212D" data-palette-fill="surface" stroke="#68C4AF" data-palette-stroke="accent" stroke-width="1.5"/><rect x="236" y="70" width="24" height="24" rx="3" fill="#68C4AF" data-palette-fill="accent" stroke="#68C4AF" data-palette-stroke="accent" stroke-width="1.5"/><path d="M241 82L246 87L256 76" fill="none" stroke="#15212D" data-palette-stroke="surface" stroke-width="2" stroke-linecap="round" stroke-linejoin="round"/><text x="274" y="89" fill="#F0F4F8" data-palette-fill="ink" font-size="18" font-weight="600" text-anchor="start"><tspan x="274" dy="0">表記確認：完了</tspan></text><rect x="224" y="132" width="252" height="64" rx="5" fill="#15212D" data-palette-fill="surface" stroke="#91A4B5" data-palette-stroke="border" stroke-width="1.5"/><circle cx="248" cy="164" r="12" fill="none" stroke="#91A4B5" data-palette-stroke="border" stroke-width="1.5"/><path d="M248 157V164H254" fill="none" stroke="#F0F4F8" data-palette-stroke="ink" stroke-width="1.5" stroke-linecap="round" stroke-linejoin="round"/><text x="274" y="171" fill="#F0F4F8" data-palette-fill="ink" font-size="16" font-weight="600" text-anchor="start"><tspan x="274" dy="0">会場情報確認：結果待ち</tspan></text><path d="M154 130H184V82H216" fill="none" stroke="#F0F4F8" data-palette-stroke="ink" stroke-width="2" stroke-linecap="round" stroke-linejoin="round"/><path d="M210 77L216 82L210 87" fill="none" stroke="#F0F4F8" data-palette-stroke="ink" stroke-width="2" stroke-linecap="round" stroke-linejoin="round"/><path d="M184 130V164H216" fill="none" stroke="#F0F4F8" data-palette-stroke="ink" stroke-width="2" stroke-linecap="round" stroke-linejoin="round"/><path d="M210 159L216 164L210 169" fill="none" stroke="#F0F4F8" data-palette-stroke="ink" stroke-width="2" stroke-linecap="round" stroke-linejoin="round"/><path d="M476 82H503V164H476" fill="none" stroke="#91A4B5" data-palette-stroke="border" stroke-width="2" stroke-linecap="round" stroke-linejoin="round"/><path d="M503 123H522" fill="none" stroke="#F0F4F8" data-palette-stroke="ink" stroke-width="2" stroke-linecap="round" stroke-linejoin="round"/><path d="M516 118L522 123L516 128" fill="none" stroke="#F0F4F8" data-palette-stroke="ink" stroke-width="2" stroke-linecap="round" stroke-linejoin="round"/><rect x="530" y="60" width="164" height="126" rx="5" fill="#15212D" data-palette-fill="surface" stroke="#91A4B5" data-palette-stroke="border" stroke-width="1.5"/><text x="612" y="87" fill="#F0F4F8" data-palette-fill="ink" font-size="16" font-weight="600" text-anchor="middle"><tspan x="612" dy="0">両方完了後に公開</tspan></text><path d="M546 101H678" fill="none" stroke="#91A4B5" data-palette-stroke="border" stroke-width="1.5" stroke-linecap="round" stroke-linejoin="round"/><rect x="546" y="117" width="132" height="43" rx="3" fill="#15212D" data-palette-fill="surface" stroke="#68C4AF" data-palette-stroke="accent" stroke-width="1.5"/><text x="612" y="145" fill="#68C4AF" data-palette-fill="accent" font-size="18" font-weight="600" text-anchor="middle"><tspan x="612" dy="0">公開済み：0</tspan></text></svg>
