<svg xmlns="http://www.w3.org/2000/svg" width="480" height="360" viewBox="0 0 480 360" role="img" aria-labelledby="title desc"><title id="title">長いラベルの担当引継ぎ</title><desc id="desc">地域交流イベント開催準備担当から参加申込内容の確認・連絡担当へ資料を渡す。不足項目ありなら準備担当へ戻す。確認完了なら当日受付と案内の担当へ渡す。</desc><g font-family="Noto Sans CJK JP, sans-serif"><rect width="480" height="360" fill="#FFFFFF"/><path d="M0 20Q240.0 19.6 480 20" fill="none" stroke="#708090" stroke-width="0.7" stroke-linecap="round" stroke-linejoin="round" opacity=".14"/><path d="M0 44Q240.0 43.6 480 44" fill="none" stroke="#708090" stroke-width="0.7" stroke-linecap="round" stroke-linejoin="round" opacity=".14"/><path d="M0 68Q240.0 67.6 480 68" fill="none" stroke="#708090" stroke-width="0.7" stroke-linecap="round" stroke-linejoin="round" opacity=".14"/><path d="M0 92Q240.0 91.6 480 92" fill="none" stroke="#708090" stroke-width="0.7" stroke-linecap="round" stroke-linejoin="round" opacity=".14"/><path d="M0 116Q240.0 115.6 480 116" fill="none" stroke="#708090" stroke-width="0.7" stroke-linecap="round" stroke-linejoin="round" opacity=".14"/><path d="M0 140Q240.0 139.6 480 140" fill="none" stroke="#708090" stroke-width="0.7" stroke-linecap="round" stroke-linejoin="round" opacity=".14"/><path d="M0 164Q240.0 163.6 480 164" fill="none" stroke="#708090" stroke-width="0.7" stroke-linecap="round" stroke-linejoin="round" opacity=".14"/><path d="M0 188Q240.0 187.6 480 188" fill="none" stroke="#708090" stroke-width="0.7" stroke-linecap="round" stroke-linejoin="round" opacity=".14"/><path d="M0 212Q240.0 211.6 480 212" fill="none" stroke="#708090" stroke-width="0.7" stroke-linecap="round" stroke-linejoin="round" opacity=".14"/><path d="M0 236Q240.0 235.6 480 236" fill="none" stroke="#708090" stroke-width="0.7" stroke-linecap="round" stroke-linejoin="round" opacity=".14"/><path d="M0 260Q240.0 259.6 480 260" fill="none" stroke="#708090" stroke-width="0.7" stroke-linecap="round" stroke-linejoin="round" opacity=".14"/><path d="M0 284Q240.0 283.6 480 284" fill="none" stroke="#708090" stroke-width="0.7" stroke-linecap="round" stroke-linejoin="round" opacity=".14"/><path d="M0 308Q240.0 307.6 480 308" fill="none" stroke="#708090" stroke-width="0.7" stroke-linecap="round" stroke-linejoin="round" opacity=".14"/><path d="M0 332Q240.0 331.6 480 332" fill="none" stroke="#708090" stroke-width="0.7" stroke-linecap="round" stroke-linejoin="round" opacity=".14"/><path d="M0 356Q240.0 355.6 480 356" fill="none" stroke="#708090" stroke-width="0.7" stroke-linecap="round" stroke-linejoin="round" opacity=".14"/><path d="M12 0L13 360" fill="none" stroke="#267D75" stroke-width="0.8" stroke-linecap="round" stroke-linejoin="round" opacity=".2"/><svg x="102" y="17" width="306" height="22" viewBox="0 0 306 22" overflow="hidden" aria-hidden="true"><path d="M-41.79 -2L-19.45 24" fill="none" stroke="#174C66" stroke-width="0.8" stroke-linecap="round" stroke-linejoin="round" opacity=".38"/><path d="M-41.45 -2L-63.79 24" fill="none" stroke="#267D75" stroke-width="0.8" stroke-linecap="round" stroke-linejoin="round" opacity=".42"/><path d="M-29.16 -2L-8.38 24" fill="none" stroke="#174C66" stroke-width="0.8" stroke-linecap="round" stroke-linejoin="round" opacity=".38"/><path d="M-30.38 -2L-51.16 24" fill="none" stroke="#267D75" stroke-width="0.8" stroke-linecap="round" stroke-linejoin="round" opacity=".42"/><path d="M-18.20 -2L4.53 24" fill="none" stroke="#174C66" stroke-width="0.8" stroke-linecap="round" stroke-linejoin="round" opacity=".38"/><path d="M-17.47 -2L-40.20 24" fill="none" stroke="#267D75" stroke-width="0.8" stroke-linecap="round" stroke-linejoin="round" opacity=".42"/><path d="M-7.25 -2L15.62 24" fill="none" stroke="#174C66" stroke-width="0.8" stroke-linecap="round" stroke-linejoin="round" opacity=".38"/><path d="M-6.38 -2L-29.25 24" fill="none" stroke="#267D75" stroke-width="0.8" stroke-linecap="round" stroke-linejoin="round" opacity=".42"/><path d="M6.94 -2L28.83 24" fill="none" stroke="#174C66" stroke-width="0.8" stroke-linecap="round" stroke-linejoin="round" opacity=".38"/><path d="M6.83 -2L-15.06 24" fill="none" stroke="#267D75" stroke-width="0.8" stroke-linecap="round" stroke-linejoin="round" opacity=".42"/><path d="M17.81 -2L41.26 24" fill="none" stroke="#174C66" stroke-width="0.8" stroke-linecap="round" stroke-linejoin="round" opacity=".38"/><path d="M19.26 -2L-4.19 24" fill="none" stroke="#267D75" stroke-width="0.8" stroke-linecap="round" stroke-linejoin="round" opacity=".42"/><path d="M29.95 -2L51.22 24" fill="none" stroke="#174C66" stroke-width="0.8" stroke-linecap="round" stroke-linejoin="round" opacity=".38"/><path d="M29.22 -2L7.95 24" fill="none" stroke="#267D75" stroke-width="0.8" stroke-linecap="round" stroke-linejoin="round" opacity=".42"/><path d="M40.71 -2L62.77 24" fill="none" stroke="#174C66" stroke-width="0.8" stroke-linecap="round" stroke-linejoin="round" opacity=".38"/><path d="M40.77 -2L18.71 24" fill="none" stroke="#267D75" stroke-width="0.8" stroke-linecap="round" stroke-linejoin="round" opacity=".42"/><path d="M55.03 -2L75.31 24" fill="none" stroke="#174C66" stroke-width="0.8" stroke-linecap="round" stroke-linejoin="round" opacity=".38"/><path d="M53.31 -2L33.03 24" fill="none" stroke="#267D75" stroke-width="0.8" stroke-linecap="round" stroke-linejoin="round" opacity=".42"/><path d="M65.41 -2L89.29 24" fill="none" stroke="#174C66" stroke-width="0.8" stroke-linecap="round" stroke-linejoin="round" opacity=".38"/><path d="M67.29 -2L43.41 24" fill="none" stroke="#267D75" stroke-width="0.8" stroke-linecap="round" stroke-linejoin="round" opacity=".42"/><path d="M77.49 -2L99.38 24" fill="none" stroke="#174C66" stroke-width="0.8" stroke-linecap="round" stroke-linejoin="round" opacity=".38"/><path d="M77.38 -2L55.49 24" fill="none" stroke="#267D75" stroke-width="0.8" stroke-linecap="round" stroke-linejoin="round" opacity=".42"/><path d="M91.20 -2L110.80 24" fill="none" stroke="#174C66" stroke-width="0.8" stroke-linecap="round" stroke-linejoin="round" opacity=".38"/><path d="M88.80 -2L69.20 24" fill="none" stroke="#267D75" stroke-width="0.8" stroke-linecap="round" stroke-linejoin="round" opacity=".42"/><path d="M101.28 -2L124.89 24" fill="none" stroke="#174C66" stroke-width="0.8" stroke-linecap="round" stroke-linejoin="round" opacity=".38"/><path d="M102.89 -2L79.28 24" fill="none" stroke="#267D75" stroke-width="0.8" stroke-linecap="round" stroke-linejoin="round" opacity=".42"/><path d="M114.46 -2L135.03 24" fill="none" stroke="#174C66" stroke-width="0.8" stroke-linecap="round" stroke-linejoin="round" opacity=".38"/><path d="M113.03 -2L92.46 24" fill="none" stroke="#267D75" stroke-width="0.8" stroke-linecap="round" stroke-linejoin="round" opacity=".42"/><path d="M127.01 -2L146.89 24" fill="none" stroke="#174C66" stroke-width="0.8" stroke-linecap="round" stroke-linejoin="round" opacity=".38"/><path d="M124.89 -2L105.01 24" fill="none" stroke="#267D75" stroke-width="0.8" stroke-linecap="round" stroke-linejoin="round" opacity=".42"/><path d="M138.31 -2L160.46 24" fill="none" stroke="#174C66" stroke-width="0.8" stroke-linecap="round" stroke-linejoin="round" opacity=".38"/><path d="M138.46 -2L116.31 24" fill="none" stroke="#267D75" stroke-width="0.8" stroke-linecap="round" stroke-linejoin="round" opacity=".42"/><path d="M151.18 -2L171.19 24" fill="none" stroke="#174C66" stroke-width="0.8" stroke-linecap="round" stroke-linejoin="round" opacity=".38"/><path d="M149.19 -2L129.18 24" fill="none" stroke="#267D75" stroke-width="0.8" stroke-linecap="round" stroke-linejoin="round" opacity=".42"/><path d="M161.01 -2L184.67 24" fill="none" stroke="#174C66" stroke-width="0.8" stroke-linecap="round" stroke-linejoin="round" opacity=".38"/><path d="M162.67 -2L139.01 24" fill="none" stroke="#267D75" stroke-width="0.8" stroke-linecap="round" stroke-linejoin="round" opacity=".42"/><path d="M174.92 -2L195.37 24" fill="none" stroke="#174C66" stroke-width="0.8" stroke-linecap="round" stroke-linejoin="round" opacity=".38"/><path d="M173.37 -2L152.92 24" fill="none" stroke="#267D75" stroke-width="0.8" stroke-linecap="round" stroke-linejoin="round" opacity=".42"/><path d="M185.88 -2L209.21 24" fill="none" stroke="#174C66" stroke-width="0.8" stroke-linecap="round" stroke-linejoin="round" opacity=".38"/><path d="M187.21 -2L163.88 24" fill="none" stroke="#267D75" stroke-width="0.8" stroke-linecap="round" stroke-linejoin="round" opacity=".42"/><path d="M197.39 -2L220.64 24" fill="none" stroke="#174C66" stroke-width="0.8" stroke-linecap="round" stroke-linejoin="round" opacity=".38"/><path d="M198.64 -2L175.39 24" fill="none" stroke="#267D75" stroke-width="0.8" stroke-linecap="round" stroke-linejoin="round" opacity=".42"/><path d="M209.25 -2L232.62 24" fill="none" stroke="#174C66" stroke-width="0.8" stroke-linecap="round" stroke-linejoin="round" opacity=".38"/><path d="M210.62 -2L187.25 24" fill="none" stroke="#267D75" stroke-width="0.8" stroke-linecap="round" stroke-linejoin="round" opacity=".42"/><path d="M221.54 -2L242.97 24" fill="none" stroke="#174C66" stroke-width="0.8" stroke-linecap="round" stroke-linejoin="round" opacity=".38"/><path d="M220.97 -2L199.54 24" fill="none" stroke="#267D75" stroke-width="0.8" stroke-linecap="round" stroke-linejoin="round" opacity=".42"/><path d="M234.05 -2L257.05 24" fill="none" stroke="#174C66" stroke-width="0.8" stroke-linecap="round" stroke-linejoin="round" opacity=".38"/><path d="M235.05 -2L212.05 24" fill="none" stroke="#267D75" stroke-width="0.8" stroke-linecap="round" stroke-linejoin="round" opacity=".42"/><path d="M245.70 -2L267.59 24" fill="none" stroke="#174C66" stroke-width="0.8" stroke-linecap="round" stroke-linejoin="round" opacity=".38"/><path d="M245.59 -2L223.70 24" fill="none" stroke="#267D75" stroke-width="0.8" stroke-linecap="round" stroke-linejoin="round" opacity=".42"/><path d="M258.62 -2L279.17 24" fill="none" stroke="#174C66" stroke-width="0.8" stroke-linecap="round" stroke-linejoin="round" opacity=".38"/><path d="M257.17 -2L236.62 24" fill="none" stroke="#267D75" stroke-width="0.8" stroke-linecap="round" stroke-linejoin="round" opacity=".42"/><path d="M271.39 -2L291.15 24" fill="none" stroke="#174C66" stroke-width="0.8" stroke-linecap="round" stroke-linejoin="round" opacity=".38"/><path d="M269.15 -2L249.39 24" fill="none" stroke="#267D75" stroke-width="0.8" stroke-linecap="round" stroke-linejoin="round" opacity=".42"/><path d="M282.26 -2L303.01 24" fill="none" stroke="#174C66" stroke-width="0.8" stroke-linecap="round" stroke-linejoin="round" opacity=".38"/><path d="M281.01 -2L260.26 24" fill="none" stroke="#267D75" stroke-width="0.8" stroke-linecap="round" stroke-linejoin="round" opacity=".42"/><path d="M293.67 -2L315.82 24" fill="none" stroke="#174C66" stroke-width="0.8" stroke-linecap="round" stroke-linejoin="round" opacity=".38"/><path d="M293.82 -2L271.67 24" fill="none" stroke="#267D75" stroke-width="0.8" stroke-linecap="round" stroke-linejoin="round" opacity=".42"/><path d="M305.64 -2L328.37 24" fill="none" stroke="#174C66" stroke-width="0.8" stroke-linecap="round" stroke-linejoin="round" opacity=".38"/><path d="M306.37 -2L283.64 24" fill="none" stroke="#267D75" stroke-width="0.8" stroke-linecap="round" stroke-linejoin="round" opacity=".42"/><path d="M318.44 -2L340.66 24" fill="none" stroke="#174C66" stroke-width="0.8" stroke-linecap="round" stroke-linejoin="round" opacity=".38"/><path d="M318.66 -2L296.44 24" fill="none" stroke="#267D75" stroke-width="0.8" stroke-linecap="round" stroke-linejoin="round" opacity=".42"/><path d="M328.62 -2L350.74 24" fill="none" stroke="#174C66" stroke-width="0.8" stroke-linecap="round" stroke-linejoin="round" opacity=".38"/><path d="M328.74 -2L306.62 24" fill="none" stroke="#267D75" stroke-width="0.8" stroke-linecap="round" stroke-linejoin="round" opacity=".42"/><path d="M340.71 -2L363.08 24" fill="none" stroke="#174C66" stroke-width="0.8" stroke-linecap="round" stroke-linejoin="round" opacity=".38"/><path d="M341.08 -2L318.71 24" fill="none" stroke="#267D75" stroke-width="0.8" stroke-linecap="round" stroke-linejoin="round" opacity=".42"/><path d="M352.83 -2L374.61 24" fill="none" stroke="#174C66" stroke-width="0.8" stroke-linecap="round" stroke-linejoin="round" opacity=".38"/><path d="M352.61 -2L330.83 24" fill="none" stroke="#267D75" stroke-width="0.8" stroke-linecap="round" stroke-linejoin="round" opacity=".42"/></svg><path d="M102 45L408 44L407 110L103 109Z" fill="#FFFFFF" stroke="#203040" stroke-width="1.7"/><path d="M104.4 43.2L409.4 46L409 108.2L101 111" fill="none" stroke="#708090" stroke-width="0.8" stroke-linecap="round" stroke-linejoin="round" opacity=".8"/><text x="255" y="70" font-size="18" text-anchor="middle" fill="#203040" font-weight="500"><tspan x="255" dy="0">地域交流イベント</tspan><tspan x="255" dy="24">開催準備担当</tspan></text><path d="M102 157L408 156L407 222L103 221Z" fill="#FFFFFF" stroke="#174C66" stroke-width="1.7"/><path d="M104.4 155.2L409.4 158L409 220.2L101 223" fill="none" stroke="#708090" stroke-width="0.8" stroke-linecap="round" stroke-linejoin="round" opacity=".8"/><text x="255" y="182" font-size="18" text-anchor="middle" fill="#203040" font-weight="500"><tspan x="255" dy="0">参加申込内容の</tspan><tspan x="255" dy="24">確認・連絡担当</tspan></text><path d="M102 282L408 281L407 338L103 337Z" fill="#FFFFFF" stroke="#267D75" stroke-width="1.7"/><path d="M104.4 280.2L409.4 283L409 336.2L101 339" fill="none" stroke="#708090" stroke-width="0.8" stroke-linecap="round" stroke-linejoin="round" opacity=".8"/><text x="255" y="315" font-size="18" font-weight="500" text-anchor="middle" fill="#203040">当日受付と案内の担当</text><path d="M255 116Q253 131 255 148" fill="none" stroke="#203040" stroke-width="1.9" stroke-linecap="round" stroke-linejoin="round" /><path d="M255 116Q253 131 255 148" fill="none" stroke="#708090" stroke-width="0.8" stroke-linecap="round" stroke-linejoin="round" transform="translate(1.2 -1)" opacity=".65"/><path d="M249 140L255 148L261 140" fill="none" stroke="#203040" stroke-width="1.9" stroke-linecap="round" stroke-linejoin="round" /><text x="298" y="136" font-size="14" font-weight="500" text-anchor="middle" fill="#203040">資料を渡す</text><path d="M96 189L30 187L31 76L95 76" fill="none" stroke="#B85A18" stroke-width="1.9" stroke-linecap="round" stroke-linejoin="round" /><path d="M96 189L30 187L31 76L95 76" fill="none" stroke="#708090" stroke-width="0.8" stroke-linecap="round" stroke-linejoin="round" transform="translate(1.2 -1)" opacity=".65"/><path d="M87 70L95 76L87 82" fill="none" stroke="#B85A18" stroke-width="1.9" stroke-linecap="round" stroke-linejoin="round" /><rect x="18" y="118" width="103" height="24" fill="#FFFFFF"/><text x="70" y="135" font-size="14" font-weight="500" text-anchor="middle" fill="#B85A18">不足項目あり</text><path d="M255 229Q256 249 255 273" fill="none" stroke="#267D75" stroke-width="1.9" stroke-linecap="round" stroke-linejoin="round" /><path d="M255 229Q256 249 255 273" fill="none" stroke="#708090" stroke-width="0.8" stroke-linecap="round" stroke-linejoin="round" transform="translate(1.2 -1)" opacity=".65"/><path d="M249 265L255 273L261 265" fill="none" stroke="#267D75" stroke-width="1.9" stroke-linecap="round" stroke-linejoin="round" /><text x="322" y="253" font-size="16" font-weight="500" text-anchor="middle" fill="#267D75">確認完了</text></g></svg>