<svg xmlns="http://www.w3.org/2000/svg" width="640" height="320" viewBox="0 0 640 320" role="img" aria-labelledby="title desc"><title id="title">予約の確定と変更</title><desc id="desc">申請、確認待ち、確定の順。確定から日時を変更すると確認待ちに戻る。自動承認なし。</desc><style>text{font-family:"Noto Sans CJK JP",sans-serif}</style><defs><pattern id="hatch" width="56" height="28" patternUnits="userSpaceOnUse"><path d="M0.21 0.55l-28 28" fill="none" stroke="#708090" stroke-width="0.8" opacity="0.55" stroke-linecap="round" stroke-linejoin="round" data-role="border"/><path d="M7.84 -0.38l-28 28" fill="none" stroke="#708090" stroke-width="0.8" opacity="0.55" stroke-linecap="round" stroke-linejoin="round" data-role="border"/><path d="M13.80 0.53l-28 28" fill="none" stroke="#708090" stroke-width="0.8" opacity="0.55" stroke-linecap="round" stroke-linejoin="round" data-role="border"/><path d="M19.75 -0.38l-28 28" fill="none" stroke="#708090" stroke-width="0.8" opacity="0.55" stroke-linecap="round" stroke-linejoin="round" data-role="border"/><path d="M28.94 0.83l-28 28" fill="none" stroke="#708090" stroke-width="0.8" opacity="0.55" stroke-linecap="round" stroke-linejoin="round" data-role="border"/><path d="M34.81 1.26l-28 28" fill="none" stroke="#708090" stroke-width="0.8" opacity="0.55" stroke-linecap="round" stroke-linejoin="round" data-role="border"/><path d="M41.95 -0.78l-28 28" fill="none" stroke="#708090" stroke-width="0.8" opacity="0.55" stroke-linecap="round" stroke-linejoin="round" data-role="border"/><path d="M47.71 -1.23l-28 28" fill="none" stroke="#708090" stroke-width="0.8" opacity="0.55" stroke-linecap="round" stroke-linejoin="round" data-role="border"/><path d="M1.03 -0.69l28 28" fill="none" stroke="#708090" stroke-width="0.8" opacity="0.55" stroke-linecap="round" stroke-linejoin="round" data-role="border"/><path d="M6.41 1.29l28 28" fill="none" stroke="#708090" stroke-width="0.8" opacity="0.55" stroke-linecap="round" stroke-linejoin="round" data-role="border"/><path d="M13.49 -0.62l28 28" fill="none" stroke="#708090" stroke-width="0.8" opacity="0.55" stroke-linecap="round" stroke-linejoin="round" data-role="border"/><path d="M22.20 -1.20l28 28" fill="none" stroke="#708090" stroke-width="0.8" opacity="0.55" stroke-linecap="round" stroke-linejoin="round" data-role="border"/><path d="M27.28 0.89l28 28" fill="none" stroke="#708090" stroke-width="0.8" opacity="0.55" stroke-linecap="round" stroke-linejoin="round" data-role="border"/><path d="M35.46 -0.97l28 28" fill="none" stroke="#708090" stroke-width="0.8" opacity="0.55" stroke-linecap="round" stroke-linejoin="round" data-role="border"/><path d="M43.01 -1.11l28 28" fill="none" stroke="#708090" stroke-width="0.8" opacity="0.55" stroke-linecap="round" stroke-linejoin="round" data-role="border"/><path d="M49.31 0.46l28 28" fill="none" stroke="#708090" stroke-width="0.8" opacity="0.55" stroke-linecap="round" stroke-linejoin="round" data-role="border"/></pattern></defs><rect x="0" y="0" width="640" height="320" fill="#FFFFFF" data-role="surface"/><path d="M0 24L640 24.4" fill="none" stroke="#708090" stroke-width="0.7" opacity="0.16" stroke-linecap="round" stroke-linejoin="round" data-role="border"/><path d="M0 48L640 48.4" fill="none" stroke="#708090" stroke-width="0.7" opacity="0.16" stroke-linecap="round" stroke-linejoin="round" data-role="border"/><path d="M0 72L640 72.4" fill="none" stroke="#708090" stroke-width="0.7" opacity="0.16" stroke-linecap="round" stroke-linejoin="round" data-role="border"/><path d="M0 96L640 96.4" fill="none" stroke="#708090" stroke-width="0.7" opacity="0.16" stroke-linecap="round" stroke-linejoin="round" data-role="border"/><path d="M0 120L640 120.4" fill="none" stroke="#708090" stroke-width="0.7" opacity="0.16" stroke-linecap="round" stroke-linejoin="round" data-role="border"/><path d="M0 144L640 144.4" fill="none" stroke="#708090" stroke-width="0.7" opacity="0.16" stroke-linecap="round" stroke-linejoin="round" data-role="border"/><path d="M0 168L640 168.4" fill="none" stroke="#708090" stroke-width="0.7" opacity="0.16" stroke-linecap="round" stroke-linejoin="round" data-role="border"/><path d="M0 192L640 192.4" fill="none" stroke="#708090" stroke-width="0.7" opacity="0.16" stroke-linecap="round" stroke-linejoin="round" data-role="border"/><path d="M0 216L640 216.4" fill="none" stroke="#708090" stroke-width="0.7" opacity="0.16" stroke-linecap="round" stroke-linejoin="round" data-role="border"/><path d="M0 240L640 240.4" fill="none" stroke="#708090" stroke-width="0.7" opacity="0.16" stroke-linecap="round" stroke-linejoin="round" data-role="border"/><path d="M0 264L640 264.4" fill="none" stroke="#708090" stroke-width="0.7" opacity="0.16" stroke-linecap="round" stroke-linejoin="round" data-role="border"/><path d="M0 288L640 288.4" fill="none" stroke="#708090" stroke-width="0.7" opacity="0.16" stroke-linecap="round" stroke-linejoin="round" data-role="border"/><path d="M0 312L640 312.4" fill="none" stroke="#708090" stroke-width="0.7" opacity="0.16" stroke-linecap="round" stroke-linejoin="round" data-role="border"/><path d="M12 0L13 320" fill="none" stroke="#174C66" stroke-width="0.8" opacity="0.18" stroke-linecap="round" stroke-linejoin="round" data-role="deep"/><rect x="20" y="8" width="600" height="34" fill="url(#hatch)"/><rect x="218.0" y="8" width="204" height="34" fill="#FFFFFF" data-role="surface"/><text x="320" y="35" text-anchor="middle" font-size="23" font-weight="600" fill="#203040" data-role="ink">予約の確定と変更</text><path d="M35 83L185 81L184 188L36 187Z" fill="#FFFFFF" stroke="#203040" stroke-width="1.8" opacity="1" stroke-linecap="round" stroke-linejoin="round" data-role="ink"/><path d="M37 81L187 83L186 186L34 189" fill="none" stroke="#708090" stroke-width="0.8" opacity="0.65" stroke-linecap="round" stroke-linejoin="round" data-role="border"/><path d="M41 88L179 87L178 108L42 109Z" fill="url(#hatch)"/><text x="110" y="155" text-anchor="middle" font-size="24" font-weight="600" fill="#203040" data-role="ink">申請</text><path d="M245 83L395 81L394 188L246 187Z" fill="#FFFFFF" stroke="#174C66" stroke-width="1.8" opacity="1" stroke-linecap="round" stroke-linejoin="round" data-role="deep"/><path d="M247 81L397 83L396 186L244 189" fill="none" stroke="#708090" stroke-width="0.8" opacity="0.65" stroke-linecap="round" stroke-linejoin="round" data-role="border"/><path d="M251 88L389 87L388 108L252 109Z" fill="url(#hatch)"/><text x="320" y="155" text-anchor="middle" font-size="24" font-weight="600" fill="#174C66" data-role="deep">確認待ち</text><path d="M455 83L605 81L604 188L456 187Z" fill="#FFFFFF" stroke="#267D75" stroke-width="1.8" opacity="1" stroke-linecap="round" stroke-linejoin="round" data-role="accent"/><path d="M457 81L607 83L606 186L454 189" fill="none" stroke="#708090" stroke-width="0.8" opacity="0.65" stroke-linecap="round" stroke-linejoin="round" data-role="border"/><path d="M461 88L599 87L598 108L462 109Z" fill="url(#hatch)"/><text x="530" y="155" text-anchor="middle" font-size="24" font-weight="600" fill="#267D75" data-role="accent">確定</text><path d="M320 107C334 107 334 128 320 128C307 127 307 106 320 107Z" fill="none" stroke="#174C66" stroke-width="1.6" opacity="1" stroke-linecap="round" stroke-linejoin="round" data-role="deep"/><path d="M321 106C335 109 332 129 319 129" fill="none" stroke="#708090" stroke-width="0.7" opacity="0.6" stroke-linecap="round" stroke-linejoin="round" data-role="border"/><path d="M320 111L320 118L325 121" fill="none" stroke="#174C66" stroke-width="1.5" opacity="1" stroke-linecap="round" stroke-linejoin="round" data-role="deep"/><path d="M523 115L529 121L540 108" fill="none" stroke="#267D75" stroke-width="2" opacity="1" stroke-linecap="round" stroke-linejoin="round" data-role="accent"/><path d="M94 109L122 108M94 117L116 117" fill="none" stroke="#203040" stroke-width="1.4" opacity="1" stroke-linecap="round" stroke-linejoin="round" data-role="ink"/><path d="M189 135Q213 133 237 135" fill="none" stroke="#203040" stroke-width="1.9" opacity="1" stroke-linecap="round" stroke-linejoin="round" data-role="ink"/><path transform="translate(1.3 -1.1)" d="M189 135Q213 133 237 135" fill="none" stroke="#708090" stroke-width="0.7" opacity="0.55" stroke-linecap="round" stroke-linejoin="round" data-role="border"/><path d="M229 129L238 135L229 141" fill="none" stroke="#203040" stroke-width="1.9" opacity="1" stroke-linecap="round" stroke-linejoin="round" data-role="ink"/><path d="M399 135Q424 134 447 135" fill="none" stroke="#203040" stroke-width="1.9" opacity="1" stroke-linecap="round" stroke-linejoin="round" data-role="ink"/><path transform="translate(1.3 -1.1)" d="M399 135Q424 134 447 135" fill="none" stroke="#708090" stroke-width="0.7" opacity="0.55" stroke-linecap="round" stroke-linejoin="round" data-role="border"/><path d="M439 129L448 135L439 141" fill="none" stroke="#203040" stroke-width="1.9" opacity="1" stroke-linecap="round" stroke-linejoin="round" data-role="ink"/><rect x="24" y="204" width="244" height="49" fill="#FFFFFF" data-role="surface"/><text x="146" y="222" text-anchor="middle" font-size="17" fill="#174C66" data-role="deep">確認待ちは</text><text x="146" y="244" text-anchor="middle" font-size="17" fill="#174C66" data-role="deep">予約確定ではない</text><path d="M530 190L531 267Q425 272 320 268L320 193" fill="none" stroke="#174C66" stroke-width="1.9" opacity="1" stroke-linecap="round" stroke-linejoin="round" data-role="deep"/><path transform="translate(1.3 -1.1)" d="M530 190L531 267Q425 272 320 268L320 193" fill="none" stroke="#708090" stroke-width="0.7" opacity="0.55" stroke-linecap="round" stroke-linejoin="round" data-role="border"/><path d="M314 202L320 192L326 202" fill="none" stroke="#174C66" stroke-width="1.9" opacity="1" stroke-linecap="round" stroke-linejoin="round" data-role="deep"/><rect x="400" y="239" width="129" height="26" fill="#FFFFFF" data-role="surface"/><text x="464" y="258" text-anchor="middle" font-size="20" font-weight="600" fill="#174C66" data-role="deep">日時を変更</text><rect x="140" y="289" width="420" height="22" fill="#FFFFFF" data-role="surface"/><text x="350" y="306" text-anchor="middle" font-size="16" font-weight="500" fill="#203040" data-role="ink">変更申請は確認待ちへ戻る・自動承認なし</text></svg>