<svg xmlns="http://www.w3.org/2000/svg" width="640" height="320" viewBox="0 0 640 320" role="img" aria-labelledby="title desc"><title id="title">予約の確定と変更</title><desc id="desc">申請から確認待ち、確定へ。日時を変更できるのは確定した予約のみ。変更申請は確認待ちへ戻り、自動承認はない。</desc><style>text{font-family:"Noto Sans CJK JP",sans-serif}</style><rect width="640" height="320" fill="#FFFFFF"/><path d="M0 22H640" fill="none" stroke="#708090" stroke-width="0.6" stroke-linecap="round" stroke-linejoin="round" opacity=".15"/><path d="M0 46H640" fill="none" stroke="#708090" stroke-width="0.6" stroke-linecap="round" stroke-linejoin="round" opacity=".15"/><path d="M0 70H640" fill="none" stroke="#708090" stroke-width="0.6" stroke-linecap="round" stroke-linejoin="round" opacity=".15"/><path d="M0 94H640" fill="none" stroke="#708090" stroke-width="0.6" stroke-linecap="round" stroke-linejoin="round" opacity=".15"/><path d="M0 118H640" fill="none" stroke="#708090" stroke-width="0.6" stroke-linecap="round" stroke-linejoin="round" opacity=".15"/><path d="M0 142H640" fill="none" stroke="#708090" stroke-width="0.6" stroke-linecap="round" stroke-linejoin="round" opacity=".15"/><path d="M0 166H640" fill="none" stroke="#708090" stroke-width="0.6" stroke-linecap="round" stroke-linejoin="round" opacity=".15"/><path d="M0 190H640" fill="none" stroke="#708090" stroke-width="0.6" stroke-linecap="round" stroke-linejoin="round" opacity=".15"/><path d="M0 214H640" fill="none" stroke="#708090" stroke-width="0.6" stroke-linecap="round" stroke-linejoin="round" opacity=".15"/><path d="M0 238H640" fill="none" stroke="#708090" stroke-width="0.6" stroke-linecap="round" stroke-linejoin="round" opacity=".15"/><path d="M0 262H640" fill="none" stroke="#708090" stroke-width="0.6" stroke-linecap="round" stroke-linejoin="round" opacity=".15"/><path d="M0 286H640" fill="none" stroke="#708090" stroke-width="0.6" stroke-linecap="round" stroke-linejoin="round" opacity=".15"/><path d="M0 310H640" fill="none" stroke="#708090" stroke-width="0.6" stroke-linecap="round" stroke-linejoin="round" opacity=".15"/><path d="M14 0L15 320" fill="none" stroke="#267D75" stroke-width="0.7" stroke-linecap="round" stroke-linejoin="round" opacity=".23"/><path d="M30 48L180 46L178 167L29 166Z" fill="#FFFFFF" stroke="#203040" stroke-width="1.7"/><path d="M30 48L180 46L178 167L29 166Z" fill="none" stroke="#708090" stroke-width="0.8" stroke-linecap="round" stroke-linejoin="round" transform="translate(2 -1.5)" opacity=".7"/><svg x="36" y="140" width="138" height="20" viewBox="0 0 138 20" overflow="hidden" aria-hidden="true"><path d="M-37.29 0L-26.74 10.0L-17.29 20" fill="none" stroke="#174C66" stroke-width="0.8" stroke-linecap="round" stroke-linejoin="round" opacity=".36"/><path d="M-24.16 0L-14.53 10.0L-4.16 20" fill="none" stroke="#174C66" stroke-width="0.8" stroke-linecap="round" stroke-linejoin="round" opacity=".36"/><path d="M-12.70 0L-2.17 10.0L7.30 20" fill="none" stroke="#174C66" stroke-width="0.8" stroke-linecap="round" stroke-linejoin="round" opacity=".36"/><path d="M-1.25 0L8.37 10.0L18.75 20" fill="none" stroke="#174C66" stroke-width="0.8" stroke-linecap="round" stroke-linejoin="round" opacity=".36"/><path d="M13.44 0L24.27 10.0L33.44 20" fill="none" stroke="#174C66" stroke-width="0.8" stroke-linecap="round" stroke-linejoin="round" opacity=".36"/><path d="M24.81 0L36.07 10.0L44.81 20" fill="none" stroke="#174C66" stroke-width="0.8" stroke-linecap="round" stroke-linejoin="round" opacity=".36"/><path d="M37.45 0L46.67 10.0L57.45 20" fill="none" stroke="#174C66" stroke-width="0.8" stroke-linecap="round" stroke-linejoin="round" opacity=".36"/><path d="M48.71 0L57.47 10.0L68.71 20" fill="none" stroke="#174C66" stroke-width="0.8" stroke-linecap="round" stroke-linejoin="round" opacity=".36"/><path d="M63.53 0L72.84 10.0L83.53 20" fill="none" stroke="#174C66" stroke-width="0.8" stroke-linecap="round" stroke-linejoin="round" opacity=".36"/><path d="M74.41 0L85.70 10.0L94.41 20" fill="none" stroke="#174C66" stroke-width="0.8" stroke-linecap="round" stroke-linejoin="round" opacity=".36"/><path d="M86.99 0L96.38 10.0L106.99 20" fill="none" stroke="#174C66" stroke-width="0.8" stroke-linecap="round" stroke-linejoin="round" opacity=".36"/><path d="M101.20 0L110.00 10.0L121.20 20" fill="none" stroke="#174C66" stroke-width="0.8" stroke-linecap="round" stroke-linejoin="round" opacity=".36"/><path d="M111.78 0L122.67 10.0L131.78 20" fill="none" stroke="#174C66" stroke-width="0.8" stroke-linecap="round" stroke-linejoin="round" opacity=".36"/><path d="M125.46 0L134.48 10.0L145.46 20" fill="none" stroke="#174C66" stroke-width="0.8" stroke-linecap="round" stroke-linejoin="round" opacity=".36"/><path d="M138.51 0L147.40 10.0L158.51 20" fill="none" stroke="#174C66" stroke-width="0.8" stroke-linecap="round" stroke-linejoin="round" opacity=".36"/><path d="M150.31 0L160.77 10.0L170.31 20" fill="none" stroke="#174C66" stroke-width="0.8" stroke-linecap="round" stroke-linejoin="round" opacity=".36"/><path d="M163.68 0L172.87 10.0L183.68 20" fill="none" stroke="#174C66" stroke-width="0.8" stroke-linecap="round" stroke-linejoin="round" opacity=".36"/><path d="M-38.49 0L-47.82 10.0L-58.49 20" fill="none" stroke="#174C66" stroke-width="0.8" stroke-linecap="round" stroke-linejoin="round" opacity=".36"/><path d="M-24.08 0L-34.72 10.0L-44.08 20" fill="none" stroke="#174C66" stroke-width="0.8" stroke-linecap="round" stroke-linejoin="round" opacity=".36"/><path d="M-12.62 0L-21.41 10.0L-32.62 20" fill="none" stroke="#174C66" stroke-width="0.8" stroke-linecap="round" stroke-linejoin="round" opacity=".36"/><path d="M-0.61 0L-9.96 10.0L-20.61 20" fill="none" stroke="#174C66" stroke-width="0.8" stroke-linecap="round" stroke-linejoin="round" opacity=".36"/><path d="M11.75 0L2.37 10.0L-8.25 20" fill="none" stroke="#174C66" stroke-width="0.8" stroke-linecap="round" stroke-linejoin="round" opacity=".36"/><path d="M24.54 0L13.51 10.0L4.54 20" fill="none" stroke="#174C66" stroke-width="0.8" stroke-linecap="round" stroke-linejoin="round" opacity=".36"/><path d="M37.55 0L28.60 10.0L17.55 20" fill="none" stroke="#174C66" stroke-width="0.8" stroke-linecap="round" stroke-linejoin="round" opacity=".36"/><path d="M49.70 0L39.29 10.0L29.70 20" fill="none" stroke="#174C66" stroke-width="0.8" stroke-linecap="round" stroke-linejoin="round" opacity=".36"/><path d="M63.12 0L52.29 10.0L43.12 20" fill="none" stroke="#174C66" stroke-width="0.8" stroke-linecap="round" stroke-linejoin="round" opacity=".36"/><path d="M76.39 0L65.53 10.0L56.39 20" fill="none" stroke="#174C66" stroke-width="0.8" stroke-linecap="round" stroke-linejoin="round" opacity=".36"/><path d="M87.76 0L76.77 10.0L67.76 20" fill="none" stroke="#174C66" stroke-width="0.8" stroke-linecap="round" stroke-linejoin="round" opacity=".36"/><path d="M99.67 0L89.48 10.0L79.67 20" fill="none" stroke="#174C66" stroke-width="0.8" stroke-linecap="round" stroke-linejoin="round" opacity=".36"/><path d="M112.14 0L102.51 10.0L92.14 20" fill="none" stroke="#174C66" stroke-width="0.8" stroke-linecap="round" stroke-linejoin="round" opacity=".36"/><path d="M125.44 0L116.11 10.0L105.44 20" fill="none" stroke="#174C66" stroke-width="0.8" stroke-linecap="round" stroke-linejoin="round" opacity=".36"/><path d="M136.12 0L124.85 10.0L116.12 20" fill="none" stroke="#174C66" stroke-width="0.8" stroke-linecap="round" stroke-linejoin="round" opacity=".36"/><path d="M148.71 0L137.79 10.0L128.71 20" fill="none" stroke="#174C66" stroke-width="0.8" stroke-linecap="round" stroke-linejoin="round" opacity=".36"/><path d="M161.33 0L149.93 10.0L141.33 20" fill="none" stroke="#174C66" stroke-width="0.8" stroke-linecap="round" stroke-linejoin="round" opacity=".36"/></svg><text x="105" y="95" font-size="24" font-weight="600" text-anchor="middle" fill="#203040">申請</text><path d="M245 48L395 46L393 167L244 166Z" fill="#FFFFFF" stroke="#203040" stroke-width="1.7"/><path d="M245 48L395 46L393 167L244 166Z" fill="none" stroke="#708090" stroke-width="0.8" stroke-linecap="round" stroke-linejoin="round" transform="translate(2 -1.5)" opacity=".7"/><svg x="251" y="140" width="138" height="20" viewBox="0 0 138 20" overflow="hidden" aria-hidden="true"><path d="M-37.29 0L-26.74 10.0L-17.29 20" fill="none" stroke="#174C66" stroke-width="0.8" stroke-linecap="round" stroke-linejoin="round" opacity=".36"/><path d="M-24.16 0L-14.53 10.0L-4.16 20" fill="none" stroke="#174C66" stroke-width="0.8" stroke-linecap="round" stroke-linejoin="round" opacity=".36"/><path d="M-12.70 0L-2.17 10.0L7.30 20" fill="none" stroke="#174C66" stroke-width="0.8" stroke-linecap="round" stroke-linejoin="round" opacity=".36"/><path d="M-1.25 0L8.37 10.0L18.75 20" fill="none" stroke="#174C66" stroke-width="0.8" stroke-linecap="round" stroke-linejoin="round" opacity=".36"/><path d="M13.44 0L24.27 10.0L33.44 20" fill="none" stroke="#174C66" stroke-width="0.8" stroke-linecap="round" stroke-linejoin="round" opacity=".36"/><path d="M24.81 0L36.07 10.0L44.81 20" fill="none" stroke="#174C66" stroke-width="0.8" stroke-linecap="round" stroke-linejoin="round" opacity=".36"/><path d="M37.45 0L46.67 10.0L57.45 20" fill="none" stroke="#174C66" stroke-width="0.8" stroke-linecap="round" stroke-linejoin="round" opacity=".36"/><path d="M48.71 0L57.47 10.0L68.71 20" fill="none" stroke="#174C66" stroke-width="0.8" stroke-linecap="round" stroke-linejoin="round" opacity=".36"/><path d="M63.53 0L72.84 10.0L83.53 20" fill="none" stroke="#174C66" stroke-width="0.8" stroke-linecap="round" stroke-linejoin="round" opacity=".36"/><path d="M74.41 0L85.70 10.0L94.41 20" fill="none" stroke="#174C66" stroke-width="0.8" stroke-linecap="round" stroke-linejoin="round" opacity=".36"/><path d="M86.99 0L96.38 10.0L106.99 20" fill="none" stroke="#174C66" stroke-width="0.8" stroke-linecap="round" stroke-linejoin="round" opacity=".36"/><path d="M101.20 0L110.00 10.0L121.20 20" fill="none" stroke="#174C66" stroke-width="0.8" stroke-linecap="round" stroke-linejoin="round" opacity=".36"/><path d="M111.78 0L122.67 10.0L131.78 20" fill="none" stroke="#174C66" stroke-width="0.8" stroke-linecap="round" stroke-linejoin="round" opacity=".36"/><path d="M125.46 0L134.48 10.0L145.46 20" fill="none" stroke="#174C66" stroke-width="0.8" stroke-linecap="round" stroke-linejoin="round" opacity=".36"/><path d="M138.51 0L147.40 10.0L158.51 20" fill="none" stroke="#174C66" stroke-width="0.8" stroke-linecap="round" stroke-linejoin="round" opacity=".36"/><path d="M150.31 0L160.77 10.0L170.31 20" fill="none" stroke="#174C66" stroke-width="0.8" stroke-linecap="round" stroke-linejoin="round" opacity=".36"/><path d="M163.68 0L172.87 10.0L183.68 20" fill="none" stroke="#174C66" stroke-width="0.8" stroke-linecap="round" stroke-linejoin="round" opacity=".36"/><path d="M-38.49 0L-47.82 10.0L-58.49 20" fill="none" stroke="#174C66" stroke-width="0.8" stroke-linecap="round" stroke-linejoin="round" opacity=".36"/><path d="M-24.08 0L-34.72 10.0L-44.08 20" fill="none" stroke="#174C66" stroke-width="0.8" stroke-linecap="round" stroke-linejoin="round" opacity=".36"/><path d="M-12.62 0L-21.41 10.0L-32.62 20" fill="none" stroke="#174C66" stroke-width="0.8" stroke-linecap="round" stroke-linejoin="round" opacity=".36"/><path d="M-0.61 0L-9.96 10.0L-20.61 20" fill="none" stroke="#174C66" stroke-width="0.8" stroke-linecap="round" stroke-linejoin="round" opacity=".36"/><path d="M11.75 0L2.37 10.0L-8.25 20" fill="none" stroke="#174C66" stroke-width="0.8" stroke-linecap="round" stroke-linejoin="round" opacity=".36"/><path d="M24.54 0L13.51 10.0L4.54 20" fill="none" stroke="#174C66" stroke-width="0.8" stroke-linecap="round" stroke-linejoin="round" opacity=".36"/><path d="M37.55 0L28.60 10.0L17.55 20" fill="none" stroke="#174C66" stroke-width="0.8" stroke-linecap="round" stroke-linejoin="round" opacity=".36"/><path d="M49.70 0L39.29 10.0L29.70 20" fill="none" stroke="#174C66" stroke-width="0.8" stroke-linecap="round" stroke-linejoin="round" opacity=".36"/><path d="M63.12 0L52.29 10.0L43.12 20" fill="none" stroke="#174C66" stroke-width="0.8" stroke-linecap="round" stroke-linejoin="round" opacity=".36"/><path d="M76.39 0L65.53 10.0L56.39 20" fill="none" stroke="#174C66" stroke-width="0.8" stroke-linecap="round" stroke-linejoin="round" opacity=".36"/><path d="M87.76 0L76.77 10.0L67.76 20" fill="none" stroke="#174C66" stroke-width="0.8" stroke-linecap="round" stroke-linejoin="round" opacity=".36"/><path d="M99.67 0L89.48 10.0L79.67 20" fill="none" stroke="#174C66" stroke-width="0.8" stroke-linecap="round" stroke-linejoin="round" opacity=".36"/><path d="M112.14 0L102.51 10.0L92.14 20" fill="none" stroke="#174C66" stroke-width="0.8" stroke-linecap="round" stroke-linejoin="round" opacity=".36"/><path d="M125.44 0L116.11 10.0L105.44 20" fill="none" stroke="#174C66" stroke-width="0.8" stroke-linecap="round" stroke-linejoin="round" opacity=".36"/><path d="M136.12 0L124.85 10.0L116.12 20" fill="none" stroke="#174C66" stroke-width="0.8" stroke-linecap="round" stroke-linejoin="round" opacity=".36"/><path d="M148.71 0L137.79 10.0L128.71 20" fill="none" stroke="#174C66" stroke-width="0.8" stroke-linecap="round" stroke-linejoin="round" opacity=".36"/><path d="M161.33 0L149.93 10.0L141.33 20" fill="none" stroke="#174C66" stroke-width="0.8" stroke-linecap="round" stroke-linejoin="round" opacity=".36"/></svg><text x="320" y="95" font-size="24" font-weight="600" text-anchor="middle" fill="#203040">確認待ち</text><path d="M460 48L610 46L608 167L459 166Z" fill="#FFFFFF" stroke="#267D75" stroke-width="1.7"/><path d="M460 48L610 46L608 167L459 166Z" fill="none" stroke="#708090" stroke-width="0.8" stroke-linecap="round" stroke-linejoin="round" transform="translate(2 -1.5)" opacity=".7"/><svg x="466" y="140" width="138" height="20" viewBox="0 0 138 20" overflow="hidden" aria-hidden="true"><path d="M-37.29 0L-26.74 10.0L-17.29 20" fill="none" stroke="#174C66" stroke-width="0.8" stroke-linecap="round" stroke-linejoin="round" opacity=".36"/><path d="M-24.16 0L-14.53 10.0L-4.16 20" fill="none" stroke="#174C66" stroke-width="0.8" stroke-linecap="round" stroke-linejoin="round" opacity=".36"/><path d="M-12.70 0L-2.17 10.0L7.30 20" fill="none" stroke="#174C66" stroke-width="0.8" stroke-linecap="round" stroke-linejoin="round" opacity=".36"/><path d="M-1.25 0L8.37 10.0L18.75 20" fill="none" stroke="#174C66" stroke-width="0.8" stroke-linecap="round" stroke-linejoin="round" opacity=".36"/><path d="M13.44 0L24.27 10.0L33.44 20" fill="none" stroke="#174C66" stroke-width="0.8" stroke-linecap="round" stroke-linejoin="round" opacity=".36"/><path d="M24.81 0L36.07 10.0L44.81 20" fill="none" stroke="#174C66" stroke-width="0.8" stroke-linecap="round" stroke-linejoin="round" opacity=".36"/><path d="M37.45 0L46.67 10.0L57.45 20" fill="none" stroke="#174C66" stroke-width="0.8" stroke-linecap="round" stroke-linejoin="round" opacity=".36"/><path d="M48.71 0L57.47 10.0L68.71 20" fill="none" stroke="#174C66" stroke-width="0.8" stroke-linecap="round" stroke-linejoin="round" opacity=".36"/><path d="M63.53 0L72.84 10.0L83.53 20" fill="none" stroke="#174C66" stroke-width="0.8" stroke-linecap="round" stroke-linejoin="round" opacity=".36"/><path d="M74.41 0L85.70 10.0L94.41 20" fill="none" stroke="#174C66" stroke-width="0.8" stroke-linecap="round" stroke-linejoin="round" opacity=".36"/><path d="M86.99 0L96.38 10.0L106.99 20" fill="none" stroke="#174C66" stroke-width="0.8" stroke-linecap="round" stroke-linejoin="round" opacity=".36"/><path d="M101.20 0L110.00 10.0L121.20 20" fill="none" stroke="#174C66" stroke-width="0.8" stroke-linecap="round" stroke-linejoin="round" opacity=".36"/><path d="M111.78 0L122.67 10.0L131.78 20" fill="none" stroke="#174C66" stroke-width="0.8" stroke-linecap="round" stroke-linejoin="round" opacity=".36"/><path d="M125.46 0L134.48 10.0L145.46 20" fill="none" stroke="#174C66" stroke-width="0.8" stroke-linecap="round" stroke-linejoin="round" opacity=".36"/><path d="M138.51 0L147.40 10.0L158.51 20" fill="none" stroke="#174C66" stroke-width="0.8" stroke-linecap="round" stroke-linejoin="round" opacity=".36"/><path d="M150.31 0L160.77 10.0L170.31 20" fill="none" stroke="#174C66" stroke-width="0.8" stroke-linecap="round" stroke-linejoin="round" opacity=".36"/><path d="M163.68 0L172.87 10.0L183.68 20" fill="none" stroke="#174C66" stroke-width="0.8" stroke-linecap="round" stroke-linejoin="round" opacity=".36"/><path d="M-38.49 0L-47.82 10.0L-58.49 20" fill="none" stroke="#174C66" stroke-width="0.8" stroke-linecap="round" stroke-linejoin="round" opacity=".36"/><path d="M-24.08 0L-34.72 10.0L-44.08 20" fill="none" stroke="#174C66" stroke-width="0.8" stroke-linecap="round" stroke-linejoin="round" opacity=".36"/><path d="M-12.62 0L-21.41 10.0L-32.62 20" fill="none" stroke="#174C66" stroke-width="0.8" stroke-linecap="round" stroke-linejoin="round" opacity=".36"/><path d="M-0.61 0L-9.96 10.0L-20.61 20" fill="none" stroke="#174C66" stroke-width="0.8" stroke-linecap="round" stroke-linejoin="round" opacity=".36"/><path d="M11.75 0L2.37 10.0L-8.25 20" fill="none" stroke="#174C66" stroke-width="0.8" stroke-linecap="round" stroke-linejoin="round" opacity=".36"/><path d="M24.54 0L13.51 10.0L4.54 20" fill="none" stroke="#174C66" stroke-width="0.8" stroke-linecap="round" stroke-linejoin="round" opacity=".36"/><path d="M37.55 0L28.60 10.0L17.55 20" fill="none" stroke="#174C66" stroke-width="0.8" stroke-linecap="round" stroke-linejoin="round" opacity=".36"/><path d="M49.70 0L39.29 10.0L29.70 20" fill="none" stroke="#174C66" stroke-width="0.8" stroke-linecap="round" stroke-linejoin="round" opacity=".36"/><path d="M63.12 0L52.29 10.0L43.12 20" fill="none" stroke="#174C66" stroke-width="0.8" stroke-linecap="round" stroke-linejoin="round" opacity=".36"/><path d="M76.39 0L65.53 10.0L56.39 20" fill="none" stroke="#174C66" stroke-width="0.8" stroke-linecap="round" stroke-linejoin="round" opacity=".36"/><path d="M87.76 0L76.77 10.0L67.76 20" fill="none" stroke="#174C66" stroke-width="0.8" stroke-linecap="round" stroke-linejoin="round" opacity=".36"/><path d="M99.67 0L89.48 10.0L79.67 20" fill="none" stroke="#174C66" stroke-width="0.8" stroke-linecap="round" stroke-linejoin="round" opacity=".36"/><path d="M112.14 0L102.51 10.0L92.14 20" fill="none" stroke="#174C66" stroke-width="0.8" stroke-linecap="round" stroke-linejoin="round" opacity=".36"/><path d="M125.44 0L116.11 10.0L105.44 20" fill="none" stroke="#174C66" stroke-width="0.8" stroke-linecap="round" stroke-linejoin="round" opacity=".36"/><path d="M136.12 0L124.85 10.0L116.12 20" fill="none" stroke="#174C66" stroke-width="0.8" stroke-linecap="round" stroke-linejoin="round" opacity=".36"/><path d="M148.71 0L137.79 10.0L128.71 20" fill="none" stroke="#174C66" stroke-width="0.8" stroke-linecap="round" stroke-linejoin="round" opacity=".36"/><path d="M161.33 0L149.93 10.0L141.33 20" fill="none" stroke="#174C66" stroke-width="0.8" stroke-linecap="round" stroke-linejoin="round" opacity=".36"/></svg><text x="535" y="95" font-size="24" font-weight="600" text-anchor="middle" fill="#267D75">確定</text><path d="M320 106C336.8 106 336.8 130 320 130C303.2 130 303.2 106 320 106M320 110L320 118L326 122" fill="none" stroke="#203040" stroke-width="1.9" stroke-linecap="round" stroke-linejoin="round" /><path d="M320 106C336.8 106 336.8 130 320 130C303.2 130 303.2 106 320 106" fill="none" stroke="#708090" stroke-width="0.7" stroke-linecap="round" stroke-linejoin="round" transform="translate(1.5 -1)"/><path d="M512 115L524 126L550 106" fill="none" stroke="#267D75" stroke-width="2.2" stroke-linecap="round" stroke-linejoin="round" /><path d="M185 105Q212 103 239 105" fill="none" stroke="#203040" stroke-width="1.9" stroke-linecap="round" stroke-linejoin="round" /><path d="M185 105Q212 103 239 105" fill="none" stroke="#708090" stroke-width="0.7" stroke-linecap="round" stroke-linejoin="round" transform="translate(1.4 -1.3)" opacity=".6"/><path d="M230 98L240 105L230 113" fill="none" stroke="#203040" stroke-width="1.9" stroke-linecap="round" stroke-linejoin="round" /><path d="M400 105Q427 107 454 105" fill="none" stroke="#203040" stroke-width="1.9" stroke-linecap="round" stroke-linejoin="round" /><path d="M400 105Q427 107 454 105" fill="none" stroke="#708090" stroke-width="0.7" stroke-linecap="round" stroke-linejoin="round" transform="translate(1.4 -1.3)" opacity=".6"/><path d="M444 98L455 105L444 113" fill="none" stroke="#203040" stroke-width="1.9" stroke-linecap="round" stroke-linejoin="round" /><text x="320" y="192" font-size="16" font-weight="500" text-anchor="middle" fill="#203040">予約はまだ未確定</text><text x="535" y="192" font-size="15" font-weight="500" text-anchor="middle" fill="#267D75">確定した予約のみ</text><path d="M535 199Q537 255 509 255L438 255Q421 255 421 238L421 153L399 153" fill="none" stroke="#267D75" stroke-width="1.9" stroke-linecap="round" stroke-linejoin="round" /><path d="M535 199Q537 255 509 255L438 255Q421 255 421 238L421 153L399 153" fill="none" stroke="#708090" stroke-width="0.7" stroke-linecap="round" stroke-linejoin="round" transform="translate(1.4 -1.3)" opacity=".6"/><path d="M410 146L398 153L410 160" fill="none" stroke="#267D75" stroke-width="1.9" stroke-linecap="round" stroke-linejoin="round" /><rect x="386" y="217" width="133" height="25" fill="#FFFFFF"/><text x="451" y="236" font-size="20" font-weight="600" text-anchor="middle" fill="#267D75">日時を変更</text><text x="320" y="279" font-size="18" font-weight="500" text-anchor="middle" fill="#203040">変更申請は確認待ちへ戻る</text><text x="320" y="303" font-size="15" font-weight="500" text-anchor="middle" fill="#203040">自動承認はない</text></svg>