<svg xmlns="http://www.w3.org/2000/svg" width="720" height="240" viewBox="0 0 720 240" role="img" aria-labelledby="title desc"><title id="title">結果未到着の並行作業</title><desc id="desc">案内文から表記確認と会場情報確認へ並行に分岐します。表記確認は完了、会場情報確認は結果待ち。まとめ役は両方完了するまで公開せず、公開済みは0です。</desc><defs><marker id="arr" viewBox="0 0 10 10" refX="8" refY="5" markerWidth="6" markerHeight="6" orient="auto"><path d="M1 1L9 5L1 9" fill="none" stroke="#203040" stroke-width="1.5"/></marker><marker id="acc" viewBox="0 0 10 10" refX="8" refY="5" markerWidth="6" markerHeight="6" orient="auto"><path d="M1 1L9 5L1 9" fill="none" stroke="#267D75" stroke-width="1.5"/></marker><marker id="warn" viewBox="0 0 10 10" refX="8" refY="5" markerWidth="6" markerHeight="6" orient="auto"><path d="M1 1L9 5L1 9" fill="none" stroke="#B85A18" stroke-width="1.5"/></marker></defs><g font-family="Noto Sans CJK JP, sans-serif"><rect width="720" height="240" fill="#FFFFFF"/><rect x="6" y="6" width="708" height="228" fill="#708090" opacity=".06"/><text x="22" y="30" font-size="20" font-weight="700" fill="#203040" text-anchor="start">結果未到着の並行作業</text><g transform="rotate(-2 82.0 126.0)"><rect x="26" y="94" width="120" height="74" fill="#708090" opacity=".19"/><rect x="22" y="89" width="120" height="74" fill="#FFFFFF" stroke="#708090" stroke-width="1"/><path d="M32 100H132" stroke="#174C66" stroke-width="4"/><path d="M118 162L141 139V162Z" fill="#174C66" opacity=".12"/></g><text x="82" y="134" font-size="22" font-weight="700" fill="#174C66" text-anchor="middle">案内文</text><g transform="rotate(-1.2 350.0 81.0)"><rect x="229" y="54" width="250" height="64" fill="#708090" opacity=".19"/><rect x="225" y="49" width="250" height="64" fill="#FFFFFF" stroke="#708090" stroke-width="1"/><path d="M235 60H465" stroke="#267D75" stroke-width="4"/><path d="M451 112L474 89V112Z" fill="#267D75" opacity=".12"/></g><text x="350" y="89" font-size="19" font-weight="700" fill="#267D75" text-anchor="middle">表記確認：完了</text><path d="M239 89l5 5 10-12" fill="none" stroke="#267D75" stroke-width="2.5" stroke-linecap="round"/><g transform="rotate(1.2 350.0 179.0)"><rect x="229" y="152" width="250" height="64" fill="#708090" opacity=".19"/><rect x="225" y="147" width="250" height="64" fill="#FFFFFF" stroke="#708090" stroke-width="1"/><path d="M235 158H465" stroke="#174C66" stroke-width="4"/><path d="M451 210L474 187V210Z" fill="#174C66" opacity=".12"/></g><text x="358" y="187" font-size="18" font-weight="700" fill="#174C66" text-anchor="middle">会場情報確認：結果待ち</text><circle cx="244" cy="183" r="9" fill="#FFFFFF" stroke="#174C66" stroke-width="1.8"/><path d="M244 178V183l4 2" fill="none" stroke="#174C66" stroke-width="1.8"/><path d="M150 125H181V81H216" fill="none" stroke="#203040" stroke-width="2" stroke-linejoin="round" stroke-linecap="round" marker-end="url(#arr)"/><path d="M181 125V179H216" fill="none" stroke="#203040" stroke-width="2" stroke-linejoin="round" stroke-linecap="round" marker-end="url(#arr)"/><path d="M483 81H510V110H531" fill="none" stroke="#267D75" stroke-width="2" stroke-linejoin="round" stroke-linecap="round" marker-end="url(#acc)"/><path d="M483 179H510V142H531" fill="none" stroke="#174C66" stroke-width="2" stroke-linejoin="round" stroke-linecap="round" stroke-dasharray="5 5" marker-end="url(#arr)"/><g transform="rotate(-1 618.5 129.5)"><rect x="543" y="85" width="159" height="99" fill="#708090" opacity=".19"/><rect x="539" y="80" width="159" height="99" fill="#FFFFFF" stroke="#708090" stroke-width="1"/><path d="M549 91H688" stroke="#174C66" stroke-width="4"/><path d="M674 178L697 155V178Z" fill="#174C66" opacity=".12"/></g><text x="618.5" y="116" font-size="17" font-weight="700" fill="#174C66" text-anchor="middle">両方完了後に公開</text><text x="618.5" y="151" font-size="20" font-weight="700" fill="#203040" text-anchor="middle">公開済み：0</text><text x="619" y="209" font-size="15" font-weight="500" fill="#174C66" text-anchor="middle">両方の完了を待つ</text></g></svg>
